#N canvas 758 250 450 300 10;
#X msg 161 125 Hello world;
#X obj 161 188 print stdout;
#X obj 161 69 bng 15 250 50 0 empty empty empty 17 7 0 10 -262144 -1
-1;
#X msg 199 67 bang;
#X connect 0 0 1 0;
#X connect 2 0 0 0;
#X connect 3 0 0 0;
