#N canvas 819 183 937 658 10;
#X msg 184 64 10;
#X msg 214 65 5;
#X obj 185 17 bng 15 250 50 0 empty empty empty 17 7 0 10 -262144 -1
-1;
#X obj 184 294 +;
#X msg 184 261 10;
#X msg 213 262 5;
#X floatatom 184 343 5 0 0 0 - - -;
#X obj 183 214 bng 15 250 50 0 empty empty empty 17 7 0 10 -262144
-1 -1;
#X obj 186 522 +;
#X msg 186 489 10;
#X msg 215 490 5;
#X floatatom 186 571 5 0 0 0 - - -;
#X obj 186 451 t b b;
#X obj 186 415 bng 15 250 50 0 empty empty empty 17 7 0 10 -262144
-1 -1;
#X obj 184 111 +;
#X floatatom 184 153 5 0 0 0 - - -;
#X text -141 15 Here the left link was created before the right one
;
#X text -144 213 Here the right link was created before the left one
;
#X text -132 450 Here we use a trigger to ensure the order of bangs
propagation;
#X connect 0 0 14 0;
#X connect 1 0 14 1;
#X connect 2 0 0 0;
#X connect 2 0 1 0;
#X connect 3 0 6 0;
#X connect 4 0 3 0;
#X connect 5 0 3 1;
#X connect 7 0 5 0;
#X connect 7 0 4 0;
#X connect 8 0 11 0;
#X connect 9 0 8 0;
#X connect 10 0 8 1;
#X connect 12 0 9 0;
#X connect 12 1 10 0;
#X connect 13 0 12 0;
#X connect 14 0 15 0;
